<svg xmlns="http://www.w3.org/2000/svg" viewBox="0 0 1200 1400" role="img" aria-label="Moss archive sample artwork">
  <defs>
    <linearGradient id="room" x1="0" x2="1" y1="0" y2="1">
      <stop offset="0" stop-color="#243021"/>
      <stop offset=".6" stop-color="#111719"/>
      <stop offset="1" stop-color="#050609"/>
    </linearGradient>
    <radialGradient id="light" cx="50%" cy="18%" r="55%">
      <stop offset="0" stop-color="#e8ffe4" stop-opacity=".62"/>
      <stop offset=".5" stop-color="#92c16d" stop-opacity=".16"/>
      <stop offset="1" stop-color="#000" stop-opacity="0"/>
    </radialGradient>
  </defs>
  <rect width="1200" height="1400" fill="url(#room)"/>
  <rect width="1200" height="1400" fill="url(#light)"/>
  <g fill="#2a2118">
    <rect x="120" y="260" width="220" height="900"/><rect x="860" y="260" width="220" height="900"/>
    <rect x="385" y="360" width="430" height="760"/>
  </g>
  <g stroke="#5a4632" stroke-width="14" opacity=".8">
    <path d="M130 420h940M130 600h940M130 780h940M130 960h940"/>
  </g>
  <g fill="#6ba14f" opacity=".86">
    <path d="M115 1030c80-90 175-95 285-15 95 70 210 72 330 8 110-58 235-56 360 20v357H115z"/>
    <circle cx="235" cy="500" r="13"/><circle cx="920" cy="570" r="16"/><circle cx="650" cy="820" r="12"/>
    <circle cx="500" cy="1060" r="18"/><circle cx="1010" cy="970" r="10"/>
  </g>
  <path d="M520 0h160l-55 1180h-50z" fill="#f4ffe9" opacity=".14"/>
</svg>
