<svg xmlns="http://www.w3.org/2000/svg" viewBox="0 0 1200 1500" role="img" aria-label="Solar orchid sample artwork">
  <defs>
    <radialGradient id="sun" cx="50%" cy="38%" r="45%">
      <stop offset="0" stop-color="#fff4a8"/>
      <stop offset=".28" stop-color="#f6a13a"/>
      <stop offset=".68" stop-color="#2e1f2a"/>
      <stop offset="1" stop-color="#07080b"/>
    </radialGradient>
    <linearGradient id="petal" x1="0" x2="1">
      <stop offset="0" stop-color="#f2f5eb" stop-opacity=".92"/>
      <stop offset="1" stop-color="#a9ffb1" stop-opacity=".52"/>
    </linearGradient>
  </defs>
  <rect width="1200" height="1500" fill="#07080b"/>
  <rect width="1200" height="1500" fill="url(#sun)" opacity=".82"/>
  <g transform="translate(600 730)" fill="url(#petal)" stroke="#f8ffe8" stroke-opacity=".38" stroke-width="5">
    <ellipse rx="105" ry="355" transform="rotate(0)"/>
    <ellipse rx="105" ry="355" transform="rotate(45)"/>
    <ellipse rx="105" ry="355" transform="rotate(90)"/>
    <ellipse rx="105" ry="355" transform="rotate(135)"/>
  </g>
  <circle cx="600" cy="730" r="95" fill="#15191f" stroke="#d8ff8a" stroke-width="8"/>
  <g stroke="#d8ff8a" stroke-width="8" stroke-linecap="round" opacity=".55">
    <path d="M600 825v390"/>
    <path d="M600 930c-135 40-240 130-315 270"/>
    <path d="M600 980c150 15 260 83 350 205"/>
  </g>
  <g fill="#fff8cf" opacity=".65">
    <circle cx="250" cy="260" r="4"/><circle cx="900" cy="250" r="5"/><circle cx="1010" cy="760" r="3"/>
    <circle cx="185" cy="850" r="5"/><circle cx="780" cy="1110" r="4"/>
  </g>
</svg>
